Coordinates
version=1
nRows=4
nColumns=63
inDegrees=yes

Units are S.I. units (second, meters, Newtons, ...)
If the header above contains a line with 'inDegrees', this indicates whether rotational values are in degrees (yes) or radians (no).

endheader
time	pelvis_tilt	pelvis_list	pelvis_rotation	pelvis_tx	pelvis_ty	pelvis_tz	hip_flexion_r	hip_adduction_r	hip_rotation_r	knee_angle_r	knee_angle_r_beta	ankle_angle_r	subtalar_angle_r	mtp_angle_r	hip_flexion_l	hip_adduction_l	hip_rotation_l	knee_angle_l	knee_angle_l_beta	ankle_angle_l	subtalar_angle_l	mtp_angle_l	L5_S1_Flex_Ext	L5_S1_Lat_Bending	L5_S1_axial_rotation	L4_L5_Flex_Ext	L4_L5_Lat_Bending	L4_L5_axial_rotation	L3_L4_Flex_Ext	L3_L4_Lat_Bending	L3_L4_axial_rotation	L2_L3_Flex_Ext	L2_L3_Lat_Bending	L2_L3_axial_rotation	L1_L2_Flex_Ext	L1_L2_Lat_Bending	L1_L2_axial_rotation	L1_T12_Flex_Ext	L1_T12_Lat_Bending	L1_T12_axial_rotation	Abs_r3	Abs_r2	Abs_r1	Abs_t1	Abs_t2	neck_flexion	neck_bending	neck_rotation	arm_flex_r	arm_add_r	arm_rot_r	elbow_flex_r	pro_sup_r	wrist_flex_r	wrist_dev_r	arm_flex_l	arm_add_l	arm_rot_l	elbow_flex_l	pro_sup_l	wrist_flex_l	wrist_dev_l
      0.00000000	     -2.14056382	     -5.61292883	     89.77984774	      0.18564959	      1.05293880	      0.11663912	      1.54225150	     -2.42009453	     -9.19062903	      5.74769315	      0.10031617	     18.28298213	     14.48425833	      0.00000000	      2.65142394	      3.93264120	      1.12051756	      4.16192564	      0.07263931	     14.75011414	     -6.99974995	      0.00000000	      0.15341004	     -0.27534279	      0.76904932	      0.28489779	     -0.36620591	      0.81711490	      0.25203736	     -0.66946845	      0.81711490	      0.17533234	     -0.66946845	      0.67291815	      0.14245656	     -0.56147901	      0.62485257	      0.08765850	     -0.42650598	      0.57678699	      1.09579258	     -3.11473268	      4.27722159	      0.00000000	      0.00000000	     27.58554717	      1.90139193	     -0.67024983	     13.04721870	    -14.25640920	     62.95334912	     58.92079689	     18.19117785	    -10.14256515	     18.90345893	     27.96735196	    -17.98323117	     90.49328769	     61.91923938	     51.53208846	     -0.83144325	     11.60379059
      0.01666667	     -2.11676271	     -5.90667174	     90.52278676	      0.18527609	      1.05242875	      0.11704001	      1.75902243	     -2.41615544	    -10.26004769	      5.65595146	      0.09871498	     17.95699704	     14.98108588	      0.00000000	      3.14903956	      3.93730348	      2.59816846	      4.34227256	      0.07578695	     14.06778626	     -8.43646219	      0.00000000	      0.17749459	     -0.26731565	      0.40894814	      0.32962520	     -0.35552981	      0.43450739	      0.29160586	     -0.64995127	      0.43450739	      0.20285857	     -0.64995127	      0.35782962	      0.16482148	     -0.54511007	      0.33227036	      0.10142041	     -0.41407194	      0.30671110	      1.26782610	     -3.02392808	      2.27444685	      0.00000000	      0.00000000	     27.78466014	      2.98494892	      1.54509033	     14.06719741	    -13.91355710	     65.26345970	     58.66529615	     17.73844357	    -10.44739938	     17.23102894	     27.32698218	    -19.00401413	     89.24069363	     62.80026237	     51.46581572	     -1.34356290	     11.51250469
      0.03333333	     -2.06807462	     -6.14219334	     91.13578241	      0.18494706	      1.05194296	      0.11741879	      1.92574172	     -2.37619435	    -11.09020587	      5.57363503	      0.09727828	     17.73314431	     15.30111570	      0.00000000	      3.54589706	      3.90266821	      3.34102674	      4.49377305	      0.07843114	     13.75283221	     -8.91824655	      0.00000000	      0.19442389	     -0.26101472	      0.17429187	      0.36106461	     -0.34714958	      0.18518511	      0.31941901	     -0.63463120	      0.18518511	      0.22220707	     -0.63463120	      0.15250538	      0.18054203	     -0.53226122	      0.14161214	      0.11109381	     -0.40431181	      0.13071890	      1.38875041	     -2.95265076	      0.96935908	      0.00000000	      0.00000000	     27.86573616	      3.64849932	      2.90328300	     14.39327882	    -13.63013952	     65.95027195	     58.49476316	     17.54283818	    -10.33915011	     16.80409271	     27.15086279	    -19.65393513	     88.81530423	     63.47702923	     51.55106570	     -1.97577965	     11.18542550
      0.05000000	     -1.98577467	     -6.26908668	     91.62902277	      0.18463870	      1.05152163	      0.11784468	      2.01381199	     -2.29590334	    -11.61049649	      5.53813932	      0.09665877	     17.64968643	     15.42048742	      0.00000000	      3.80909284	      3.84898075	      4.17165663	      4.62715680	      0.08075912	     13.49147343	     -9.63571527	      0.00000000	      0.19581896	     -0.25448186	      0.02207447	      0.36365539	     -0.33846087	      0.02345413	      0.32171097	     -0.61874719	      0.02345413	      0.22380149	     -0.61874719	      0.01931516	      0.18183748	     -0.51893941	      0.01793551	      0.11189095	     -0.39419240	      0.01655585	      1.39871523	     -2.87874968	      0.12277160	      0.00000000	      0.00000000	     27.89743823	      3.97695486	      3.54788633	     14.67827000	    -13.58307305	     66.70917307	     58.81051814	     15.52037478	    -11.50526556	     15.88616908	     27.13843479	    -20.05267850	     88.39804741	     63.93345841	     53.04139024	     -2.08852970	     11.19482101
